<svg width="213.333" height="192" xmlns="http://www.w3.org/2000/svg"><defs><filter id="prefix__i" x="-.688" y="-.476" width="2.99" height="2.377" color-interpolation-filters="sRGB"><feFlood flood-opacity=".502" flood-color="#000" result="flood"/><feComposite in="flood" in2="SourceGraphic" operator="out" result="composite1"/><feGaussianBlur in="composite1" stdDeviation="2.8" result="blur"/><feOffset dx="6" dy="6" result="offset"/><feComposite in="offset" in2="SourceGraphic" operator="atop" result="composite2"/></filter><filter id="prefix__j" x="-.645" y="-.338" width="2.865" height="1.977" color-interpolation-filters="sRGB"><feFlood flood-opacity=".502" flood-color="#000" result="flood"/><feComposite in="flood" in2="SourceGraphic" operator="out" result="composite1"/><feGaussianBlur in="composite1" stdDeviation="2.8" result="blur"/><feOffset dx="6" dy="6" result="offset"/><feComposite in="offset" in2="SourceGraphic" operator="atop" result="composite2"/></filter><filter id="prefix__k" x="-.695" y="-.467" width="3.009" height="2.352" color-interpolation-filters="sRGB"><feFlood flood-opacity=".502" flood-color="#000" result="flood"/><feComposite in="flood" in2="SourceGraphic" operator="out" result="composite1"/><feGaussianBlur in="composite1" stdDeviation="2.8" result="blur"/><feOffset dx="6" dy="6" result="offset"/><feComposite in="offset" in2="SourceGraphic" operator="atop" result="composite2"/></filter><filter id="prefix__h" x="-.2" y="-.193" width="1.58" height="1.557" color-interpolation-filters="sRGB"><feFlood flood-opacity=".502" flood-color="#000" result="flood"/><feComposite in="flood" in2="SourceGraphic" operator="out" result="composite1"/><feGaussianBlur in="composite1" stdDeviation="2.8" result="blur"/><feOffset dx="6" dy="6" result="offset"/><feComposite in="offset" in2="SourceGraphic" operator="atop" result="composite2"/></filter><filter id="prefix__b" x="-.645" y="-.494" width="2.865" height="2.429" color-interpolation-filters="sRGB"><feFlood flood-opacity=".271" flood-color="#000" result="flood"/><feComposite in="flood" in2="SourceGraphic" operator="out" result="composite1"/><feGaussianBlur in="composite1" stdDeviation="2.8" result="blur"/><feOffset dx="6" dy="6" result="offset"/><feComposite in="offset" in2="SourceGraphic" operator="atop" result="composite2"/></filter><filter id="prefix__c" x="-.551" y="-.5" width="2.594" height="2.447" color-interpolation-filters="sRGB"><feFlood flood-opacity=".271" flood-color="#000" result="flood"/><feComposite in="flood" in2="SourceGraphic" operator="out" result="composite1"/><feGaussianBlur in="composite1" stdDeviation="2.8" result="blur"/><feOffset dx="6" dy="6" result="offset"/><feComposite in="offset" in2="SourceGraphic" operator="atop" result="composite2"/></filter><filter id="prefix__d" x="-.645" y="-.338" width="2.865" height="1.977" color-interpolation-filters="sRGB"><feFlood flood-opacity=".271" flood-color="#000" result="flood"/><feComposite in="flood" in2="SourceGraphic" operator="out" result="composite1"/><feGaussianBlur in="composite1" stdDeviation="2.8" result="blur"/><feOffset dx="6" dy="6" result="offset"/><feComposite in="offset" in2="SourceGraphic" operator="atop" result="composite2"/></filter><filter id="prefix__e" x="-.688" y="-.476" width="2.99" height="2.377" color-interpolation-filters="sRGB"><feFlood flood-opacity=".271" flood-color="#000" result="flood"/><feComposite in="flood" in2="SourceGraphic" operator="out" result="composite1"/><feGaussianBlur in="composite1" stdDeviation="2.8" result="blur"/><feOffset dx="6" dy="6" result="offset"/><feComposite in="offset" in2="SourceGraphic" operator="atop" result="composite2"/></filter><filter id="prefix__f" x="-.495" y="-.447" width="2.433" height="2.292" color-interpolation-filters="sRGB"><feFlood flood-opacity=".271" flood-color="#000" result="flood"/><feComposite in="flood" in2="SourceGraphic" operator="out" result="composite1"/><feGaussianBlur in="composite1" stdDeviation="2.8" result="blur"/><feOffset dx="6" dy="6" result="offset"/><feComposite in="offset" in2="SourceGraphic" operator="atop" result="composite2"/></filter><filter id="prefix__a" x="-.253" y="-.166" width="1.731" height="1.481" color-interpolation-filters="sRGB"><feFlood flood-opacity=".271" flood-color="#000" result="flood"/><feComposite in="flood" in2="SourceGraphic" operator="out" result="composite1"/><feGaussianBlur in="composite1" stdDeviation="2.8" result="blur"/><feOffset dx="6" dy="6" result="offset"/><feComposite in="offset" in2="SourceGraphic" operator="atop" result="composite2"/></filter><filter id="prefix__g" x="-.645" y="-.338" width="2.865" height="1.977" color-interpolation-filters="sRGB"><feFlood flood-opacity=".271" flood-color="#000" result="flood"/><feComposite in="flood" in2="SourceGraphic" operator="out" result="composite1"/><feGaussianBlur in="composite1" stdDeviation="2.8" result="blur"/><feOffset dx="6" dy="6" result="offset"/><feComposite in="offset" in2="SourceGraphic" operator="atop" result="composite2"/></filter><filter id="prefix__z" x="-.455" y="-.36" width="2.364" height="2.079" color-interpolation-filters="sRGB"><feFlood flood-opacity=".165" flood-color="#000" result="flood"/><feComposite in="flood" in2="SourceGraphic" operator="out" result="composite1"/><feGaussianBlur in="composite1" stdDeviation="2.5" result="blur"/><feOffset dx="6" dy="6" result="offset"/><feComposite in="offset" in2="SourceGraphic" operator="atop" result="composite2"/></filter><filter id="prefix__A" x="-.53" y="-.394" width="2.591" height="2.183" color-interpolation-filters="sRGB"><feFlood flood-opacity=".165" flood-color="#000" result="flood"/><feComposite in="flood" in2="SourceGraphic" operator="out" result="composite1"/><feGaussianBlur in="composite1" stdDeviation="2.5" result="blur"/><feOffset dx="6" dy="6" result="offset"/><feComposite in="offset" in2="SourceGraphic" operator="atop" result="composite2"/></filter><filter id="prefix__B" x="-.704" y="-.479" width="3.112" height="2.438" color-interpolation-filters="sRGB"><feFlood flood-opacity=".165" flood-color="#000" result="flood"/><feComposite in="flood" in2="SourceGraphic" operator="out" result="composite1"/><feGaussianBlur in="composite1" stdDeviation="2.5" result="blur"/><feOffset dx="6" dy="6" result="offset"/><feComposite in="offset" in2="SourceGraphic" operator="atop" result="composite2"/></filter><filter id="prefix__C" x="-.771" y="-.694" width="3.312" height="3.082" color-interpolation-filters="sRGB"><feFlood flood-opacity=".165" flood-color="#000" result="flood"/><feComposite in="flood" in2="SourceGraphic" operator="out" result="composite1"/><feGaussianBlur in="composite1" stdDeviation="2.5" result="blur"/><feOffset dx="6" dy="6" result="offset"/><feComposite in="offset" in2="SourceGraphic" operator="atop" result="composite2"/></filter><filter id="prefix__F" x="-1.238" y="-.735" width="4.715" height="3.204" color-interpolation-filters="sRGB"><feFlood flood-opacity=".165" flood-color="#000" result="flood"/><feComposite in="flood" in2="SourceGraphic" operator="out" result="composite1"/><feGaussianBlur in="composite1" stdDeviation="2.5" result="blur"/><feOffset dx="6" dy="6" result="offset"/><feComposite in="offset" in2="SourceGraphic" operator="atop" result="composite2"/></filter><filter id="prefix__G" x="-.934" y="-.595" width="3.801" height="2.784" color-interpolation-filters="sRGB"><feFlood flood-opacity=".165" flood-color="#000" result="flood"/><feComposite in="flood" in2="SourceGraphic" operator="out" result="composite1"/><feGaussianBlur in="composite1" stdDeviation="2.5" result="blur"/><feOffset dx="6" dy="6" result="offset"/><feComposite in="offset" in2="SourceGraphic" operator="atop" result="composite2"/></filter><filter id="prefix__H" x="-.681" y="-.493" width="3.044" height="2.478" color-interpolation-filters="sRGB"><feFlood flood-opacity=".165" flood-color="#000" result="flood"/><feComposite in="flood" in2="SourceGraphic" operator="out" result="composite1"/><feGaussianBlur in="composite1" stdDeviation="2.5" result="blur"/><feOffset dx="6" dy="6" result="offset"/><feComposite in="offset" in2="SourceGraphic" operator="atop" result="composite2"/></filter><filter id="prefix__I" x="-.447" y="-.391" width="2.341" height="2.173" color-interpolation-filters="sRGB"><feFlood flood-opacity=".165" flood-color="#000" result="flood"/><feComposite in="flood" in2="SourceGraphic" operator="out" result="composite1"/><feGaussianBlur in="composite1" stdDeviation="2.5" result="blur"/><feOffset dx="6" dy="6" result="offset"/><feComposite in="offset" in2="SourceGraphic" operator="atop" result="composite2"/></filter><filter id="prefix__N" x="-.647" y="-.471" width="2.941" height="2.414" color-interpolation-filters="sRGB"><feFlood flood-opacity=".165" flood-color="#000" result="flood"/><feComposite in="flood" in2="SourceGraphic" operator="out" result="composite1"/><feGaussianBlur in="composite1" stdDeviation="2.5" result="blur"/><feOffset dx="6" dy="6" result="offset"/><feComposite in="offset" in2="SourceGraphic" operator="atop" result="composite2"/></filter><filter id="prefix__O" x="-.884" y="-.544" width="3.653" height="2.631" color-interpolation-filters="sRGB"><feFlood flood-opacity=".165" flood-color="#000" result="flood"/><feComposite in="flood" in2="SourceGraphic" operator="out" result="composite1"/><feGaussianBlur in="composite1" stdDeviation="2.5" result="blur"/><feOffset dx="6" dy="6" result="offset"/><feComposite in="offset" in2="SourceGraphic" operator="atop" result="composite2"/></filter><filter id="prefix__P" x="-1.277" y="-.534" width="4.832" height="2.601" color-interpolation-filters="sRGB"><feFlood flood-opacity=".165" flood-color="#000" result="flood"/><feComposite in="flood" in2="SourceGraphic" operator="out" result="composite1"/><feGaussianBlur in="composite1" stdDeviation="2.5" result="blur"/><feOffset dx="6" dy="6" result="offset"/><feComposite in="offset" in2="SourceGraphic" operator="atop" result="composite2"/></filter><filter id="prefix__Q" x="-1.291" y="-.493" width="4.872" height="2.48" color-interpolation-filters="sRGB"><feFlood flood-opacity=".165" flood-color="#000" result="flood"/><feComposite in="flood" in2="SourceGraphic" operator="out" result="composite1"/><feGaussianBlur in="composite1" stdDeviation="2.5" result="blur"/><feOffset dx="6" dy="6" result="offset"/><feComposite in="offset" in2="SourceGraphic" operator="atop" result="composite2"/></filter><filter id="prefix__R" x="-1.69" y="-.729" width="6.071" height="3.187" color-interpolation-filters="sRGB"><feFlood flood-opacity=".165" flood-color="#000" result="flood"/><feComposite in="flood" in2="SourceGraphic" operator="out" result="composite1"/><feGaussianBlur in="composite1" stdDeviation="2.5" result="blur"/><feOffset dx="6" dy="6" result="offset"/><feComposite in="offset" in2="SourceGraphic" operator="atop" result="composite2"/></filter><filter id="prefix__S" x="-1.485" y="-.57" width="5.455" height="2.71" color-interpolation-filters="sRGB"><feFlood flood-opacity=".165" flood-color="#000" result="flood"/><feComposite in="flood" in2="SourceGraphic" operator="out" result="composite1"/><feGaussianBlur in="composite1" stdDeviation="2.5" result="blur"/><feOffset dx="6" dy="6" result="offset"/><feComposite in="offset" in2="SourceGraphic" operator="atop" result="composite2"/></filter><filter id="prefix__T" x="-1.144" y="-.506" width="4.431" height="2.517" color-interpolation-filters="sRGB"><feFlood flood-opacity=".165" flood-color="#000" result="flood"/><feComposite in="flood" in2="SourceGraphic" operator="out" result="composite1"/><feGaussianBlur in="composite1" stdDeviation="2.5" result="blur"/><feOffset dx="6" dy="6" result="offset"/><feComposite in="offset" in2="SourceGraphic" operator="atop" result="composite2"/></filter><filter id="prefix__U" x="-.742" y="-.426" width="3.225" height="2.277" color-interpolation-filters="sRGB"><feFlood flood-opacity=".165" flood-color="#000" result="flood"/><feComposite in="flood" in2="SourceGraphic" operator="out" result="composite1"/><feGaussianBlur in="composite1" stdDeviation="2.5" result="blur"/><feOffset dx="6" dy="6" result="offset"/><feComposite in="offset" in2="SourceGraphic" operator="atop" result="composite2"/></filter><filter id="prefix__w" x="-.092" y="-.057" width="1.277" height="1.17" color-interpolation-filters="sRGB"><feFlood flood-opacity=".165" flood-color="#000" result="flood"/><feComposite in="flood" in2="SourceGraphic" operator="out" result="composite1"/><feGaussianBlur in="composite1" stdDeviation="2.5" result="blur"/><feOffset dx="6" dy="6" result="offset"/><feComposite in="offset" in2="SourceGraphic" operator="atop" result="composite2"/></filter><filter id="prefix__u" x="-.293" y="-.14" width="1.879" height="1.42" color-interpolation-filters="sRGB"><feFlood flood-opacity=".165" flood-color="#000" result="flood"/><feComposite in="flood" in2="SourceGraphic" operator="out" result="composite1"/><feGaussianBlur in="composite1" stdDeviation="2.5" result="blur"/><feOffset dx="6" dy="6" result="offset"/><feComposite in="offset" in2="SourceGraphic" operator="atop" result="composite2"/></filter><filter id="prefix__E" x="-1.04" y="-.976" width="4.121" height="3.928" color-interpolation-filters="sRGB"><feFlood flood-opacity=".165" flood-color="#000" result="flood"/><feComposite in="flood" in2="SourceGraphic" operator="out" result="composite1"/><feGaussianBlur in="composite1" stdDeviation="2.5" result="blur"/><feOffset dx="6" dy="6" result="offset"/><feComposite in="offset" in2="SourceGraphic" operator="atop" result="composite2"/></filter><filter id="prefix__D" x="-.739" y="-.931" width="3.217" height="3.794" color-interpolation-filters="sRGB"><feFlood flood-opacity=".165" flood-color="#000" result="flood"/><feComposite in="flood" in2="SourceGraphic" operator="out" result="composite1"/><feGaussianBlur in="composite1" stdDeviation="2.5" result="blur"/><feOffset dx="6" dy="6" result="offset"/><feComposite in="offset" in2="SourceGraphic" operator="atop" result="composite2"/></filter><filter id="prefix__n" x="-.118" y="-.059" width="1.354" height="1.177" color-interpolation-filters="sRGB"><feFlood flood-opacity=".165" flood-color="#000" result="flood"/><feComposite in="flood" in2="SourceGraphic" operator="out" result="composite1"/><feGaussianBlur in="composite1" stdDeviation="2.5" result="blur"/><feOffset dx="6" dy="6" result="offset"/><feComposite in="offset" in2="SourceGraphic" operator="atop" result="composite2"/></filter><filter id="prefix__o" x="-.128" y="-.062" width="1.385" height="1.186" color-interpolation-filters="sRGB"><feFlood flood-opacity=".165" flood-color="#000" result="flood"/><feComposite in="flood" in2="SourceGraphic" operator="out" result="composite1"/><feGaussianBlur in="composite1" stdDeviation="2.5" result="blur"/><feOffset dx="6" dy="6" result="offset"/><feComposite in="offset" in2="SourceGraphic" operator="atop" result="composite2"/></filter><filter id="prefix__y" x="-.377" y="-.361" width="2.131" height="2.083" color-interpolation-filters="sRGB"><feFlood flood-opacity=".165" flood-color="#000" result="flood"/><feComposite in="flood" in2="SourceGraphic" operator="out" result="composite1"/><feGaussianBlur in="composite1" stdDeviation="2.5" result="blur"/><feOffset dx="6" dy="6" result="offset"/><feComposite in="offset" in2="SourceGraphic" operator="atop" result="composite2"/></filter><filter id="prefix__J" x="-.348" y="-.401" width="2.043" height="2.203" color-interpolation-filters="sRGB"><feFlood flood-opacity=".165" flood-color="#000" result="flood"/><feComposite in="flood" in2="SourceGraphic" operator="out" result="composite1"/><feGaussianBlur in="composite1" stdDeviation="2.5" result="blur"/><feOffset dx="6" dy="6" result="offset"/><feComposite in="offset" in2="SourceGraphic" operator="atop" result="composite2"/></filter><filter id="prefix__M" x="-.546" y="-.467" width="2.637" height="2.401" color-interpolation-filters="sRGB"><feFlood flood-opacity=".165" flood-color="#000" result="flood"/><feComposite in="flood" in2="SourceGraphic" operator="out" result="composite1"/><feGaussianBlur in="composite1" stdDeviation="2.5" result="blur"/><feOffset dx="6" dy="6" result="offset"/><feComposite in="offset" in2="SourceGraphic" operator="atop" result="composite2"/></filter><filter id="prefix__V" x="-.588" y="-.481" width="2.765" height="2.443" color-interpolation-filters="sRGB"><feFlood flood-opacity=".165" flood-color="#000" result="flood"/><feComposite in="flood" in2="SourceGraphic" operator="out" result="composite1"/><feGaussianBlur in="composite1" stdDeviation="2.5" result="blur"/><feOffset dx="6" dy="6" result="offset"/><feComposite in="offset" in2="SourceGraphic" operator="atop" result="composite2"/></filter><filter id="prefix__W" x="-.334" y="-.405" width="2.001" height="2.216" color-interpolation-filters="sRGB"><feFlood flood-opacity=".165" flood-color="#000" result="flood"/><feComposite in="flood" in2="SourceGraphic" operator="out" result="composite1"/><feGaussianBlur in="composite1" stdDeviation="2.5" result="blur"/><feOffset dx="6" dy="6" result="offset"/><feComposite in="offset" in2="SourceGraphic" operator="atop" result="composite2"/></filter><filter id="prefix__L" x="-.503" y="-.599" width="2.509" height="2.797" color-interpolation-filters="sRGB"><feFlood flood-opacity=".165" flood-color="#000" result="flood"/><feComposite in="flood" in2="SourceGraphic" operator="out" result="composite1"/><feGaussianBlur in="composite1" stdDeviation="2.5" result="blur"/><feOffset dx="6" dy="6" result="offset"/><feComposite in="offset" in2="SourceGraphic" operator="atop" result="composite2"/></filter><filter id="prefix__p" x="-.635" y="-1.072" width="2.904" height="4.217" color-interpolation-filters="sRGB"><feFlood flood-opacity=".165" flood-color="#000" result="flood"/><feComposite in="flood" in2="SourceGraphic" operator="out" result="composite1"/><feGaussianBlur in="composite1" stdDeviation="2.5" result="blur"/><feOffset dx="6" dy="6" result="offset"/><feComposite in="offset" in2="SourceGraphic" operator="atop" result="composite2"/></filter><filter id="prefix__l" x="-.248" y="-.583" width="1.743" height="2.75" color-interpolation-filters="sRGB"><feFlood flood-opacity=".165" flood-color="#000" result="flood"/><feComposite in="flood" in2="SourceGraphic" operator="out" result="composite1"/><feGaussianBlur in="composite1" stdDeviation="2.5" result="blur"/><feOffset dx="6" dy="6" result="offset"/><feComposite in="offset" in2="SourceGraphic" operator="atop" result="composite2"/></filter><filter id="prefix__m" x="-.333" y="-.858" width="1.998" height="3.575" color-interpolation-filters="sRGB"><feFlood flood-opacity=".165" flood-color="#000" result="flood"/><feComposite in="flood" in2="SourceGraphic" operator="out" result="composite1"/><feGaussianBlur in="composite1" stdDeviation="2.5" result="blur"/><feOffset dx="6" dy="6" result="offset"/><feComposite in="offset" in2="SourceGraphic" operator="atop" result="composite2"/></filter><filter id="prefix__x" x="-.379" y="-.43" width="2.138" height="2.291" color-interpolation-filters="sRGB"><feFlood flood-opacity=".165" flood-color="#000" result="flood"/><feComposite in="flood" in2="SourceGraphic" operator="out" result="composite1"/><feGaussianBlur in="composite1" stdDeviation="2.5" result="blur"/><feOffset dx="6" dy="6" result="offset"/><feComposite in="offset" in2="SourceGraphic" operator="atop" result="composite2"/></filter><filter id="prefix__K" x="-.399" y="-.681" width="2.197" height="3.044" color-interpolation-filters="sRGB"><feFlood flood-opacity=".165" flood-color="#000" result="flood"/><feComposite in="flood" in2="SourceGraphic" operator="out" result="composite1"/><feGaussianBlur in="composite1" stdDeviation="2.5" result="blur"/><feOffset dx="6" dy="6" result="offset"/><feComposite in="offset" in2="SourceGraphic" operator="atop" result="composite2"/></filter><filter id="prefix__s" x="-.081" y="-.093" width="1.243" height="1.278" color-interpolation-filters="sRGB"><feFlood flood-opacity=".165" flood-color="#000" result="flood"/><feComposite in="flood" in2="SourceGraphic" operator="out" result="composite1"/><feGaussianBlur in="composite1" stdDeviation="2.5" result="blur"/><feOffset dx="6" dy="6" result="offset"/><feComposite in="offset" in2="SourceGraphic" operator="atop" result="composite2"/></filter><filter id="prefix__t" x="-.449" y="-.226" width="2.348" height="1.678" color-interpolation-filters="sRGB"><feFlood flood-opacity=".165" flood-color="#000" result="flood"/><feComposite in="flood" in2="SourceGraphic" operator="out" result="composite1"/><feGaussianBlur in="composite1" stdDeviation="2.5" result="blur"/><feOffset dx="6" dy="6" result="offset"/><feComposite in="offset" in2="SourceGraphic" operator="atop" result="composite2"/></filter><filter id="prefix__r" x="-.367" y="-.188" width="2.101" height="1.564" color-interpolation-filters="sRGB"><feFlood flood-opacity=".165" flood-color="#000" result="flood"/><feComposite in="flood" in2="SourceGraphic" operator="out" result="composite1"/><feGaussianBlur in="composite1" stdDeviation="2.5" result="blur"/><feOffset dx="6" dy="6" result="offset"/><feComposite in="offset" in2="SourceGraphic" operator="atop" result="composite2"/></filter><filter id="prefix__q" x="-1.145" y="-.688" width="4.436" height="3.064" color-interpolation-filters="sRGB"><feFlood flood-opacity=".165" flood-color="#000" result="flood"/><feComposite in="flood" in2="SourceGraphic" operator="out" result="composite1"/><feGaussianBlur in="composite1" stdDeviation="2.5" result="blur"/><feOffset dx="6" dy="6" result="offset"/><feComposite in="offset" in2="SourceGraphic" operator="atop" result="fbSourceGraphic"/><feColorMatrix result="fbSourceGraphicAlpha" in="fbSourceGraphic" values="0 0 0 -1 0 0 0 0 -1 0 0 0 0 -1 0 0 0 0 1 0"/><feFlood flood-opacity=".349" flood-color="#000" result="flood"/><feComposite in2="fbSourceGraphic" in="flood" operator="out" result="composite1"/><feGaussianBlur in="composite1" stdDeviation="2.5" result="blur"/><feOffset dx="6" dy="6" result="offset"/><feComposite in2="fbSourceGraphic" in="offset" operator="atop" result="composite2"/></filter><filter id="prefix__v" x="-.396" y="-.505" width="2.187" height="2.514" color-interpolation-filters="sRGB"><feFlood flood-opacity=".165" flood-color="#000" result="flood"/><feComposite in="flood" in2="SourceGraphic" operator="out" result="composite1"/><feGaussianBlur in="composite1" stdDeviation="2.5" result="blur"/><feOffset dx="6" dy="6" result="offset"/><feComposite in="offset" in2="SourceGraphic" operator="atop" result="fbSourceGraphic"/><feColorMatrix result="fbSourceGraphicAlpha" in="fbSourceGraphic" values="0 0 0 -1 0 0 0 0 -1 0 0 0 0 -1 0 0 0 0 1 0"/><feFlood flood-opacity=".349" flood-color="#000" result="flood"/><feComposite in2="fbSourceGraphic" in="flood" operator="out" result="composite1"/><feGaussianBlur in="composite1" stdDeviation="2.5" result="blur"/><feOffset dx="6" dy="6" result="offset"/><feComposite in2="fbSourceGraphic" in="offset" operator="atop" result="composite2"/></filter></defs><path d="M64.124 161.928v1.597q-3.483 4.596-6.406 7.57-2.902 2.998-5.68 4.595-2.779 1.622-5.37 1.622-2.239 0-3.856-1.057-1.596-1.057-2.426-3.096-.808-2.015-.808-4.792 0-2.187.58-4.62.602-2.458 1.721-4.94 1.12-2.506 2.737-5.16 1.637-2.655 3.835-5.579 2.28-3.023 4.499-5.21 2.218-2.211 4.022-3.465 1.803-1.253 3.337-1.867 1.555-.615 2.571-.615 1.037 0 1.762.59.726.59 1.12 1.72.394 1.13.394 2.605 0 2.777-1.597 6.193-1.596 3.391-3.98 6.561t-4.561 5.186q-2.156 1.99-3.11 1.99-.642 0-1.202-.59-.54-.614-.54-1.376 0-1.4 1.245-3.391 1.264-1.99 2.736-3.637 1.493-1.671 1.783-1.671.145 0 .145.147 0 .221-.228.762-.207.54-.207.663 0 .197.124.197.353 0 2.032-2.236 1.68-2.237 3.068-4.915 1.41-2.703 1.41-4.424 0-.712-.27-1.08-.248-.394-.767-.394-1.45 0-4.415 2.801-2.944 2.777-6.054 7.103-3.089 4.3-5.162 8.895-2.073 4.596-2.073 8.086 0 2.015.497 3.366.519 1.352 1.493 2.09.995.736 2.384.736 3.006 0 6.82-2.777 3.815-2.777 8.397-8.183z" style="-inkscape-font-specification:'Brush Script MT Italic'" font-style="italic" font-size="26.667" font-family="Brush Script MT" fill-rule="evenodd" fill="#fff" filter="url(#prefix__a)"/><path d="M74.126 163.768v1.268q-1.053 1.136-1.692 1.514-.638.379-1.836.303-2.075 2.914-3.656 2.914-.894 0-1.628-.7-.735-.7-1.182-1.911-.43-1.211-.43-2.706 0-1.211.67-2.687.686-1.477 1.756-2.744 1.086-1.287 2.315-2.063 1.23-.795 2.283-.795.75 0 1.181.284.431.265.431.757 0 .378-.367.87.607.152.83.511.224.34.224 1.268 0 .909-.367 2.29-.352 1.381-.974 2.593l.287.34h.24q.271 0 .526-.151.272-.17.48-.34.207-.19.91-.815zm-3.288-4.977q-1.325.947-2.267 1.723-.942.756-1.597 1.551-.654.776-.878 1.571-.399 2.12-.399 2.29 0 1.249 1.469 1.249.686 0 2.299-1.4-.272-.89-.272-1.704 0-1.192.415-2.422.415-1.249 1.23-2.858z" style="-inkscape-font-specification:'Brush Script MT Bold'" font-weight="700" font-size="20.535" font-family="Brush Script MT" fill="#fff" fill-rule="evenodd" filter="url(#prefix__b)"/><path d="M84.855 160.381q-2.81 3.71-2.81 5.166 0 .814.559.814.463 0 1.197-.568.75-.586 2.33-2.062v1.305q-2.266 2.65-3.48 3.823-1.213 1.173-1.98 1.173-1.308 0-1.308-2.043 0-.606.16-1.193.159-.586.43-1.21.288-.644.863-1.818.574-1.192 1.325-2.687-.91.549-2.283 2.177-.894 1.021-1.517 1.949-.623.908-1.341 2.043-.702 1.117-1.038 1.514-.319.379-.654.379-.511 0-.942-1.268-.431-1.268-.431-2.952 0-1.041.191-1.628.208-.586.799-1.665 1.101-2.006 1.9-2.933.798-.946 1.532-.946.51 0 .814.208.32.208.32.643 0 .19-.096.398-.096.208-.224.378-.112.17-.495.662-2.522 3.312-2.522 4.296 0 .549.303.549.192 0 .735-.72.558-.737 1.42-1.91.878-1.193 2.06-2.48 1.197-1.286 2.714-2.479.846-.7 1.405-.7.255 0 .495.833.255.833.255 1.684 0 .416-.686 1.268z" style="-inkscape-font-specification:'Brush Script MT Bold'" font-weight="700" font-size="20.535" font-family="Brush Script MT" fill="#fff" fill-rule="evenodd" filter="url(#prefix__c)"/><path d="M91.64 153.985h.686q.846-1.798 1.533-2.536.686-.757 1.564-.757t.878.473q0 .227-.686 1.23-.687 1.003-1.038 1.684l.958.133q.431.057.67.094-.91 2.006-2.283 4.107-.447-.038-.75-.057-.303-.038-.622-.057-.304-.038-.75-.075-.863 1.646-1.454 2.952-.574 1.287-.894 2.365-.303 1.079-.303 2.044 0 1.306.878 1.306.607 0 1.58-.757.99-.776 2.635-2.366v1.268q-4.31 5.545-6.37 5.545-.719 0-1.166-.662-.43-.663-.43-1.704 0-.7.239-1.665.255-.965.894-2.914-.224.227-.431.454l-.367.397q-.16.17-.352.379-.191.19-.383.397v-1.305q1.677-1.666 4.055-5.848-.24-.019-.447-.019-.207-.019-.495-.019-.941 0-1.404.152-.192.056-.368.132-.16.057-.223.057-.064 0-.064-.114 0-.624.655-1.873.526-1.06.99-1.571.478-.51 1.149-.681.686-.19 1.916-.19z" style="-inkscape-font-specification:'Brush Script MT Bold'" font-weight="700" font-size="20.535" font-family="Brush Script MT" fill="#fff" fill-rule="evenodd" filter="url(#prefix__d)"/><path d="M94.05 165.263v-1.23q.862-1.21 1.31-2.062-.512-.208-.751-.511-.224-.303-.224-.909 0-.68.48-1.722.478-1.04 1.18-1.949.703-.908 1.278-1.173.223-.133.431-.133.32 0 .32.36 0 .322-.496 1.306 3.29-.606 4.151-.606.335 0 .463.076.272.17.447.795.176.624.176 1.249 0 .397-.304.87-.287.454-1.005 1.344-.846 1.078-1.421 2.346-.575 1.268-.575 1.912 0 .889.926.889.974 0 3.385-2.347v1.268q-1.326 1.647-2.188 2.593-.862.946-1.596 1.514-.734.549-1.31.549-.67 0-1.117-.72-.447-.737-.447-2.119 0-.814.352-1.854.35-1.041 1.021-2.252.687-1.23 1.533-2.442-.447.114-1.006.246-.559.114-1.181.246-.623.133-.958.209-.99 2.346-2.874 4.257z" style="-inkscape-font-specification:'Brush Script MT Bold'" font-weight="700" font-size="20.535" font-family="Brush Script MT" fill="#fff" fill-rule="evenodd" filter="url(#prefix__e)"/><path d="M105.625 160.419q2.426-2.612 4.71-3.88 2.282-1.267 3.527-1.267.336 0 .623.34.287.322.447.757.176.435.176.644 0 .34-.224.51-.223.152-.782.379l.287.776q.176.473.272.776.095.284.095.51 0 .455-.782 1.704-.766 1.23-1.086 1.817-.303.586-.303 1.438 0 1.4 1.086 1.4 1.117 0 3.496-2.479V165q-4.04 5.317-5.78 5.317-.622 0-.893-.492-.256-.473-.256-1.42 0-1.494.91-4.333-2.33 3.066-3.464 4.372-1.133 1.287-1.868 1.287-.351 0-.878-.72-.527-.719-.942-1.854-.399-1.154-.399-2.385 0-.889.144-1.476.143-.605.558-1.23.416-.624 1.325-1.646zm7.647-2.082q-4.151 2.252-5.923 3.823-1.756 1.57-1.756 3.236 0 .606.175 1.003.176.378.48.378.175 0 .622-.265 1.676-1.173 3.065-3.046 1.389-1.893 3.337-5.129z" style="-inkscape-font-specification:'Brush Script MT Bold'" font-weight="700" font-size="20.535" font-family="Brush Script MT" fill="#fff" fill-rule="evenodd" filter="url(#prefix__f)"/><path d="M122.627 153.985h.686q.847-1.798 1.533-2.536.686-.757 1.565-.757.878 0 .878.473 0 .227-.687 1.23-.686 1.003-1.038 1.684l.958.133q.431.057.67.094-.91 2.006-2.282 4.107-.447-.038-.75-.057-.304-.038-.623-.057-.303-.038-.75-.075-.863 1.646-1.453 2.952-.575 1.287-.894 2.365-.304 1.079-.304 2.044 0 1.306.878 1.306.607 0 1.581-.757.99-.776 2.634-2.366v1.268q-4.31 5.545-6.37 5.545-.718 0-1.165-.662-.431-.663-.431-1.704 0-.7.24-1.665.255-.965.893-2.914-.223.227-.43.454l-.368.397q-.16.17-.351.379-.192.19-.383.397v-1.305q1.676-1.666 4.055-5.848-.24-.019-.447-.019-.208-.019-.495-.019-.942 0-1.405.152-.192.056-.367.132-.16.057-.224.057t-.064-.114q0-.624.655-1.873.527-1.06.99-1.571.479-.51 1.15-.681.686-.19 1.915-.19z" style="-inkscape-font-specification:'Brush Script MT Bold'" font-weight="700" font-size="20.535" font-family="Brush Script MT" fill="#fff" fill-rule="evenodd" filter="url(#prefix__g)"/><path d="M143.413 159.643q-2.487.098-3.648.098-1.783 0-4.934-.098-.664.86-1.617 2.04-.954 1.154-1.804 2.162-.85.983-1.472 1.696-.601.688-.995 1.155-2.301 2.654-3.006 3.465-.684.81-1.451 1.45-.767.663-1.41.663-.726 0-.726-.786 0-.86 1.037-2.654 1.036-1.794 2.343-3.17 1.306-1.377 2.135-1.377.228 0 .643.246l3.939-4.989q-.747-.122-1.95-.147-1.202-.05-1.616-.221-.415-.172-.415-.836 0-1.056 1.907-3.317 1.037-1.254 1.95-1.598.911-.344 3.482-.368-1.513.246-2.156.59-.622.319-.684.983h2.425q.83-.025 1.224-.05 3.4-3.932 6.178-6.831 2.778-2.925 5.846-5.53 3.089-2.63 6.572-4.816.684 1.057.684 2.212 0 .958-.54 2.211-.518 1.254-2.238 4.719-1.7 3.44-3.462 7.323.58 0 .953.024.394 0 .83.025 1.181 0 1.43.049.27.049.27.491 0 .197-.332.713-.311.492-1.12 1.671-.808 1.155-1.575 2.36l-3.048.294q-2.425 5.407-2.425 6.095 0 1.007.891 1.007.435 0 3.607-2.162l-.165 1.302q-1.7 1.524-2.654 2.408-.933.86-1.638 1.45-.684.565-1.265.836-.56.295-1.14.295-.684 0-1.347-.762-.664-.737-.664-2.114 0-.565.353-1.597.352-1.057.746-2.015.415-.958 2.052-4.595zm-3.918-5.579l6.717-.147q1.182-2.384 1.908-3.858l1.617-3.195q.891-1.745 1.513-2.949.643-1.204 1.41-2.728-1.493 1.106-3.048 2.458-1.555 1.351-3.503 3.268-1.95 1.892-3.463 3.539-1.513 1.622-3.15 3.612z" style="-inkscape-font-specification:'Brush Script MT Bold'" font-weight="700" font-size="26.667" font-family="Brush Script MT" fill="#ff2a2a" fill-rule="evenodd" filter="url(#prefix__h)"/><path d="M151.988 165.263v-1.23q.862-1.21 1.31-2.062-.511-.208-.75-.511-.224-.303-.224-.909 0-.68.479-1.722.479-1.04 1.181-1.949.702-.908 1.277-1.173.224-.133.431-.133.32 0 .32.36 0 .322-.495 1.306 3.288-.606 4.15-.606.336 0 .463.076.272.17.447.795.176.624.176 1.249 0 .397-.303.87-.288.454-1.006 1.344-.846 1.078-1.421 2.346-.575 1.268-.575 1.912 0 .889.926.889.974 0 3.385-2.347v1.268q-1.325 1.647-2.187 2.593-.862.946-1.597 1.514-.734.549-1.309.549-.67 0-1.117-.72-.447-.737-.447-2.119 0-.814.35-1.854.352-1.041 1.022-2.252.687-1.23 1.533-2.442-.447.114-1.006.246-.558.114-1.181.246-.623.133-.958.209-.99 2.346-2.874 4.257z" style="-inkscape-font-specification:'Brush Script MT Bold'" font-weight="700" font-size="20.535" font-family="Brush Script MT" fill="#ff2a2a" fill-rule="evenodd" filter="url(#prefix__i)"/><path d="M167.298 153.985h.687q.846-1.798 1.533-2.536.686-.757 1.564-.757t.878.473q0 .227-.686 1.23-.687 1.003-1.038 1.684l.958.133q.43.057.67.094-.91 2.006-2.283 4.107-.447-.038-.75-.057-.303-.038-.623-.057-.303-.038-.75-.075-.862 1.646-1.453 2.952-.574 1.287-.894 2.365-.303 1.079-.303 2.044 0 1.306.878 1.306.607 0 1.58-.757.99-.776 2.635-2.366v1.268q-4.31 5.545-6.37 5.545-.719 0-1.166-.662-.43-.663-.43-1.704 0-.7.239-1.665.255-.965.894-2.914-.224.227-.431.454l-.367.397q-.16.17-.352.379-.191.19-.383.397v-1.305q1.677-1.666 4.055-5.848-.24-.019-.447-.019-.207-.019-.495-.019-.942 0-1.405.152-.191.056-.367.132-.16.057-.223.057-.064 0-.064-.114 0-.624.655-1.873.526-1.06.99-1.571.478-.51 1.149-.681.686-.19 1.916-.19z" style="-inkscape-font-specification:'Brush Script MT Bold'" font-weight="700" font-size="20.535" font-family="Brush Script MT" fill="#ff2a2a" fill-rule="evenodd" filter="url(#prefix__j)"/><path d="M172.423 164.488v.473q0 1.116.463 1.74.463.625 1.213.625.783 0 1.613-.435.846-.435 1.676-1.154.83-.72 2.028-1.93v1.154q-1.804 2.573-3.385 3.955-1.58 1.362-3.209 1.362-1.42 0-2.25-1.305-.83-1.306-.83-3.577 0-1.987.781-3.596.783-1.627 2.555-3.425 1.213-1.23 2.41-1.854 1.198-.625 2.14-.625.75 0 1.181.416.447.398.447 1.212 0 1.192-.75 2.384-.75 1.173-2.3 2.347-1.532 1.154-3.783 2.233zm.16-1.23q1.437-.663 2.458-1.647 1.022-.984 1.501-1.873.495-.909.495-1.325 0-.435-.335-.435-.288 0-.942.435-.639.435-1.31 1.135-.654.7-1.18 1.647-.528.946-.687 2.063z" style="-inkscape-font-specification:'Brush Script MT Bold'" font-weight="700" font-size="20.535" font-family="Brush Script MT" fill="#ff2a2a" fill-rule="evenodd" filter="url(#prefix__k)"/><path d="M132.385 124.67a9.926 9.926 0 01-.835.171c-.45.075-1.093.16-1.918.246-.825.085-1.832.17-3.075.202a78.28 78.28 0 01-3.889-.021c-1.168-.032-2.025-.075-3.396-.5-1.372-.427-3.257-1.237-4.832-1.952-1.576-.714-2.84-1.332-3.911-1.95-1.072-.619-1.95-1.237-2.22-1.792-.268-.555.075-1.046.643-1.568.568-.523 1.361-1.078 2.068-1.493.708-.416 1.33-.694 1.962-.853.632-.16 1.275-.203 1.907-.01.633.192 1.254.619 2.133 1.216.878.597 2.014 1.365 3.139 2.1 1.125.736 2.24 1.44 3.375 2.133 1.136.693 2.293 1.375 3.247 1.93.953.554 1.703.98 2.625 1.31.921.331 2.014.566 2.56.683.545.117.545.117.417.149z" fill="#fff" fill-rule="evenodd" filter="url(#prefix__l)"/><path d="M104.577 120.839c-.032 0-.097 0-.796-.04-.698-.042-2.03-.124-3.09-.124s-1.85.082-2.26.222c-.412.14-.445.336.353.9.798.564 2.425 1.496 3.88 2.314 1.454.818 2.736 1.521 4.084 2.093 1.348.573 2.761 1.014 3.977 1.251 1.216.237 2.235.27 3.106.123a6.528 6.528 0 001.98-.687c.386-.212.435-.31.329-.376-.106-.066-.369-.098-.698-.115-.329-.016-.723-.016-1.2-.106-.476-.09-1.035-.27-1.725-.515a23.52 23.52 0 01-2.44-1.006 29.344 29.344 0 01-2.713-1.512c-.748-.474-1.208-.834-1.619-1.219-.41-.384-.773-.793-.954-.998-.181-.205-.181-.205-.214-.205z" fill="#fff" fill-rule="evenodd" filter="url(#prefix__m)"/><path d="M103.945 128.355c.173.286-.616.384-1.38.457-.765.074-1.504.123-2.293-.048-.789-.172-1.627-.564-2.745-1.259-1.117-.695-2.514-1.693-4.52-3.296-2.005-1.602-4.618-3.81-7.001-6.06a90.007 90.007 0 01-6.32-6.607c-1.783-2.07-3.197-3.917-4.808-6.158-1.61-2.24-3.418-4.874-4.906-7.262-1.487-2.388-2.654-4.53-3.928-6.968A303.297 303.297 0 0162.18 83.5a171.42 171.42 0 01-3.114-6.738 72.052 72.052 0 01-2.301-5.946c-.724-2.15-1.463-4.67-1.948-6.706-.485-2.036-.715-3.59-.954-5.307a61.629 61.629 0 01-.608-6.658c-.123-3.058-.123-7.294-.058-10.476.066-3.181.198-5.307.534-6.992.337-1.685.88-2.928 1.332-3.844.452-.917.813-1.505 1.331-2.062a8.558 8.558 0 011.595-1.325c.404-.245.535-.212.633-.105.099.107.164.287.065.556-.099.27-.362.629-.666 1.079-.304.45-.649.99-.978 1.677-.329.687-.64 1.521-.92 2.355-.28.834-.526 1.669-.74 3.533-.213 1.865-.394 4.76-.5 7.81-.108 3.051-.14 6.257-.091 8.326.05 2.07.18 3.002.427 4.613.247 1.61.608 3.9 1.233 6.362.625 2.462 1.512 5.095 2.688 8.17a178.506 178.506 0 004.142 9.896c1.504 3.304 3.049 6.395 4.939 9.715 1.89 3.32 4.125 6.87 6.188 9.92 2.063 3.05 3.953 5.602 6.484 8.48a110.447 110.447 0 008.547 8.645c2.843 2.56 5.358 4.473 7.314 5.806 1.956 1.333 3.353 2.085 4.618 2.698 1.266.614 2.4 1.088 2.572 1.374z" fill="#fff" fill-rule="evenodd" filter="url(#prefix__n)"/><path d="M95.3 128.493c-.19.05-.567.148-1.036.189-.468.04-1.027.024-1.856-.327-.83-.351-1.932-1.038-3.953-2.633a72.104 72.104 0 01-8.112-7.482c-3.147-3.386-6.5-7.655-9.237-11.384a190.33 190.33 0 01-6.377-9.266c-1.52-2.347-2.44-3.852-3.854-6.583a176.044 176.044 0 01-4.832-10.19c-1.513-3.5-2.63-6.542-3.411-8.881-.78-2.34-1.225-3.975-1.75-6.118-.527-2.142-1.135-4.792-1.496-6.82-.362-2.028-.477-3.435-.584-5.455-.107-2.02-.205-4.653-.173-7.336.033-2.682.197-5.414.436-7.459.238-2.044.55-3.402.797-4.342.246-.94.427-1.464.666-1.833.238-.368.534-.58.798-.695.263-.115.493-.131.649-.049.156.083.238.263.221.533-.017.269-.132.629-.37 1.357s-.6 1.823-.838 3.786-.354 4.793-.386 7.197c-.033 2.405.016 4.384.057 6.036.041 1.652.074 2.977.395 5.226.32 2.249.929 5.422 1.52 8.137.592 2.715 1.167 4.972 1.973 7.508.805 2.535 1.84 5.348 3.328 8.726a137.999 137.999 0 005.515 11.073c2.087 3.753 4.322 7.319 6.993 11.179 2.671 3.86 5.777 8.014 8.605 11.367 2.827 3.353 5.374 5.905 7.823 8.031 2.45 2.126 4.8 3.827 6.23 4.833 1.43 1.006 1.939 1.317 2.193 1.472.254.154.254.155.065.203z" fill="#fff" fill-rule="evenodd" filter="url(#prefix__o)"/><path d="M81.995 123.432c-.608-.058-1.348.22-1.809.49-.46.27-.641.532-.164 1.064.478.532 1.612 1.333 2.573 2.004.962.67 1.75 1.21 2.499 1.545a5.375 5.375 0 002.021.482c.567.016.994-.082 1.323-.164.328-.082.559-.147.673-.244.115-.098.115-.229-.016-.319-.13-.09-.394-.14-.747-.262a6.512 6.512 0 01-1.25-.597c-.451-.277-.911-.637-1.503-1.177-.592-.54-1.315-1.26-1.915-1.815-.6-.557-1.076-.95-1.685-1.007z" fill="#fff" fill-rule="evenodd" filter="url(#prefix__p)"/><path d="M135.245 108.464c-.268.565-.568 1.141-.578 1.664-.01.523.269.992.901 1.397.633.405 1.618.746 2.636.532 1.017-.213 2.067-.981 2.967-1.92.9-.937 1.65-2.046 2.281-3.432a19.31 19.31 0 001.426-4.723c.278-1.674.321-3.358.204-4.446-.118-1.087-.396-1.578-1.028-1.962-.632-.385-1.618-.662-2.571-.8-.954-.14-1.875-.14-2.637.095-.761.234-1.361.704-1.811 1.344-.45.64-.75 1.45-.911 2.464-.16 1.013-.182 2.228-.193 3.22-.01.992-.01 1.76 0 2.538.01.778.032 1.567-.075 2.239-.107.67-.343 1.225-.61 1.79z" fill="#ff2a2a" fill-rule="evenodd" filter="url(#prefix__q)"/><path d="M109.304 43.314l4.952 2.19-9.431 29.72-6.916-2.816z" fill="#fff" filter="url(#prefix__r)"/><path d="M116.063 46.727l-7.859 24.48.236.938c1.126.052 2.254.104 3.734.287 1.48.182 3.314.495 5.056.964a35.237 35.237 0 014.52 1.578c1.126.482 1.728.821 2.082 1.004.354.182.458.208.445.26-.014.051-.145.13-.342.352-.196.221-.458.586-.773 1.12-.314.535-.681 1.24-.917 2.06-.235.822-.34 1.76-.209 2.582a3.692 3.692 0 001.036 2.06c.537.534 1.245.899 1.991 1.08a5.437 5.437 0 002.292.04c.76-.144 1.493-.431 2.305-.952.811-.522 1.702-1.278 2.147-1.629.446-.351.446-.299.432-.22-.013.077-.039.181-.091.364-.053.182-.131.443-.21.938-.078.496-.157 1.226-.104 1.852.052.626.236 1.147.59 1.668.354.522.878 1.043 1.507 1.33.628.285 1.362.337 2.095.259a6.867 6.867 0 002.213-.639 9.814 9.814 0 002.24-1.486c.733-.638 1.44-1.42 1.702-1.616.262-.195.078.196-.066.666a4.794 4.794 0 00-.209 1.734c.04.717.223 1.603.564 2.268.341.665.839 1.108 1.402 1.42a3.679 3.679 0 001.873.482c.68-.014 1.414-.222 2.069-.548.654-.326 1.23-.77 1.807-1.342.576-.574 1.152-1.278 1.545-1.734.393-.456.603-.665.681-.704.079-.038.027.092-.013.327-.039.235-.065.574-.078.952-.013.378-.013.795.052 1.29.066.496.197 1.07.46 1.538.262.47.655.835 1.048 1.069.393.234.786.338 1.297.39.51.052 1.14.052 1.82-.235.68-.287 1.414-.86 2.069-1.512a15.852 15.852 0 001.623-1.929c.393-.547.603-.912.761-1.068.158-.156.263-.104.42-.052.157.052.367.104.681.117.314.012.733-.014 1.047-.105.314-.091.524-.248.641-.495.118-.247.144-.585.053-.885-.09-.3-.3-.56-.536-.847-.236-.287-.498-.6-.72-.809-.223-.209-.406-.313-.46-.534-.053-.222.026-.56-.013-.99-.039-.43-.196-.952-.353-1.395a11.34 11.34 0 00-.432-1.056c-.118-.248-.197-.378-.157-.43.04-.054.197-.028.498.05.301.08.747.21 1.506.3.76.092 1.834.144 2.75.078.917-.065 1.677-.247 2.148-.482.47-.234.654-.52.602-.872-.051-.352-.34-.769-1.033-1.186-.694-.418-1.795-.835-2.502-1.109-.707-.273-1.022-.404-.905-.795.117-.391.668-1.043 1.284-1.317.616-.273 1.298-.17 2.136-.117.838.052 1.833.052 2.71-.118.878-.17 1.638-.508 2.056-.938.42-.43.498-.95.263-1.446-.235-.495-.785-.964-1.375-1.304-.59-.339-1.218-.547-1.637-.69-.419-.144-.629-.222-.42-.614.209-.391.838-1.095 1.217-1.564.38-.469.511-.704.84-.821.328-.118.851-.118 1.572-.248.72-.13 1.637-.391 2.252-.704.615-.313.93-.678 1.073-1.16a2.403 2.403 0 00-.117-1.615c-.235-.534-.68-1.004-1.086-1.317-.406-.313-.773-.47-.878-.548-.105-.078.053-.078.367-.118.314-.039.786-.117 1.205-.208.419-.092.785-.196 1.48-.587a16.378 16.378 0 002.67-1.916c.957-.847 1.848-1.864 2.28-2.502.432-.638.406-.898 0-1.967-.405-1.069-1.191-2.946-2.134-5.357-.944-2.412-2.044-5.358-3.026-7.887-.983-2.528-1.847-4.64-2.698-6.778-.852-2.137-1.69-4.301-2.11-5.514-.419-1.212-.419-1.473-1.022-.952-.602.52-1.807 1.824-2.554 2.633-.746.808-1.035 1.12-1.4 1.342-.367.221-.812.352-1.795.586-.982.235-2.501.574-4.807 1.121-2.305.548-5.396 1.304-7.715 1.969-2.318.664-3.864 1.238-4.833 1.486-.969.248-1.362.17-1.794.026-.432-.143-.904-.351-1.284-.456-.38-.105-.668-.105-1.677.286-1.009.391-2.738 1.173-4.44 1.903-1.703.73-3.38 1.408-4.86 2.034-1.48.625-2.764 1.199-3.956 1.877a25.61 25.61 0 00-3.196 2.177c-.904.717-1.611 1.368-2.514 1.72-.903.352-2.004.404-3.078.378-1.074-.026-2.121-.13-2.96-.312a10.084 10.084 0 01-1.782-.574l-.315-.13z" fill="#fff" filter="url(#prefix__s)"/><ellipse cx="102.1" cy="-70.622" rx="1.546" ry="1.492" transform="scale(1 -1)" fill="gray"/><path d="M131.597 81.513a6.59 4.036-48.423 01-7.419 2.49 6.59 4.036-48.423 011.09-7.511 6.59 4.036-48.423 017.427-2.542 6.59 4.036-48.423 01-1.04 7.494M141.834 84.617a4.643 7.263 32.597 01-7.799 3.125 4.643 7.263 32.597 01.411-8.784 4.643 7.263 32.597 017.802-3.184 4.643 7.263 32.597 01-.358 8.761M151.355 87.134a6.79 4.166-55.994 01-7.24 3.358 6.79 4.166-55.994 01.259-7.905 6.79 4.166-55.994 017.242-3.412 6.79 4.166-55.994 01-.21 7.882M160.316 88.051a4.042 6.337 21.472 01-6.109 4.202 4.042 6.337 21.472 01-1.29-7.471 4.042 6.337 21.472 016.1-4.253 4.042 6.337 21.472 011.332 7.442M169.592 68.029c-.285.466-.856 1.399-1.697 1.777-.841.379-1.955.203-3.136-.02a91.323 91.323 0 01-3.456-.73c-1.026-.236-1.827-.439-2.377-.635-.55-.195-.849-.385-1.026-.668-.177-.284-.231-.662-.177-.987.054-.325.217-.595.428-.805.21-.21.468-.358.74-.453.272-.095.558-.135.924-.094.367.04.816.162 1.359.324.543.163 1.181.365 1.908.561.726.196 1.541.385 2.295.547.754.163 1.446.298 1.99.392.543.095.936.149 1.33.196.394.047.788.088.984.108.196.02.196.02-.09.487zM164.006 74.976c-.062.46-.537 1.298-.97 1.69-.434.391-.828.337-1.466.216a62.234 62.234 0 01-2.302-.494c-.781-.182-1.46-.358-2.234-.594s-1.643-.534-2.146-.83c-.503-.297-.64-.595-.646-.92a1.472 1.472 0 01.325-.933c.211-.257.51-.42.789-.528a1.76 1.76 0 01.93-.114c.395.048.924.196 1.549.365.625.17 1.344.358 2.071.561.727.203 1.46.419 2.037.581.577.162.998.27 1.385.365.387.095.74.176.678.635zM156.72 80.004c-.185.073-.557.22-.847.366-.29.147-.498.295-.626.426-.129.131-.177.246-.288.272-.11.027-.284-.034-.477-.171a2.249 2.249 0 01-.542-.571 2.216 2.216 0 01-.262-.623 2.778 2.778 0 01-.104-.493c-.014-.15-.006-.296.153-.348.158-.05.465-.007.764.07.3.076.592.185.911.333.32.149.664.337.92.455.255.117.42.165.502.188.082.023.082.023-.103.096z" fill="gray"/><path d="M180.958 56.87c-.313.353-.94 1.058-1.76 1.742-.82.684-1.83 1.349-2.741 1.842-.91.493-1.72.816-2.842.937-1.123.12-2.56.04-4.3-.372-1.74-.413-3.783-1.158-6.14-2.144-2.357-.987-5.028-2.215-6.92-3.111-1.891-.896-3.004-1.46-3.915-2.054a15.7 15.7 0 01-1.993-1.56c-.374-.342-.415-.402-.607-.373-.192.03-.536.15-.82.553-.284.404-.507 1.088-.86 1.944-.355.855-.84 1.882-1.042 2.618-.202.735-.121 1.178.02 2.024.142.845.344 2.094.395 3.241a15.1 15.1 0 01-.213 3.171c-.162.977-.385 1.883-.698 2.728-.314.846-.719 1.63-1.285 2.295a6.355 6.355 0 01-2.022 1.56c-.728.352-1.457.513-1.973.434-.515-.08-.819-.402-.991-.795-.173-.392-.214-.856-.244-1.46s-.05-1.349-.131-2.255a57.535 57.535 0 00-.405-3.201c-.182-1.228-.405-2.618-.647-3.614a9.544 9.544 0 00-.759-2.114c-.252-.514-.495-.937-.587-1.31-.091-.372-.03-.694.232-1.319.263-.624.729-1.55 1.194-2.748.465-1.198.93-2.668 1.437-4.037.505-1.37 1.052-2.638 1.517-3.786.465-1.147.85-2.174 1.194-3 .344-.825.647-1.45.88-1.842.233-.393.395-.554 1.063-.826.668-.272 1.841-.655 3.925-1.239 2.085-.584 5.079-1.369 7.85-2.084 2.773-.715 5.322-1.359 6.95-1.731 1.63-.373 2.338-.473 2.914-.685.576-.211 1.021-.533 1.568-1.006a31.66 31.66 0 001.679-1.591c.485-.493.809-.856 1.022-.945.213-.09.314.09.77 1.188.454 1.098 1.264 3.111 2.923 7.36 1.659 4.248 4.168 10.731 5.422 13.972 1.254 3.241 1.254 3.241.94 3.593z" fill="gray"/><path d="M171.464 33.685c-.945-.819-1.7-.288-2.379.21-.678.497-1.278.962-1.444 1.56-.167.598.1 1.328.9 3.45.8 2.124 2.134 5.64 3.423 9.046 1.289 3.406 2.533 6.702 3.311 8.747.778 2.046 1.09 2.842 1.456 3.063.366.22.788-.134 1.41-.742.623-.608 1.445-1.47 2.023-2.057.578-.586.911-.896.745-1.912-.167-1.017-.833-2.742-1.956-5.562-1.122-2.82-2.7-6.734-4.056-9.775-1.355-3.041-2.489-5.208-3.433-6.028z" fill="#fff" filter="url(#prefix__t)"/><path d="M105.004 42.835c-1.234-1.964-4.249-3.772-6.949-5.581-2.7-1.809-5.086-3.618-7.117-5.426-2.03-1.81-3.705-3.618-4.564-4.081-.859-.463-.9.419-.963 1.654-.063 1.235-.147 2.824-.168 4.81-.02 1.984.021 4.367.21 6.86.188 2.492.523 5.095 1.13 8.206.608 3.11 1.487 6.728 2.513 9.75 1.025 3.022 2.198 5.448 3.35 7.257 1.15 1.809 2.28 3 3.014 3.683.732.684 1.067.86 1.757-.485.69-1.346 1.736-4.214 3.118-7.875 1.381-3.662 3.098-8.118 4.228-11.405 1.13-3.286 1.675-5.404.44-7.367z" fill="#fff" fill-rule="evenodd" filter="url(#prefix__u)"/><path d="M116.217 44.159c.355.256 1.062.768 1.908 1.012a4.085 4.085 0 002.742-.17c.91-.395 1.746-1.163 1.896-2.058.15-.895-.385-1.918-1.649-3.56-1.264-1.643-3.257-3.903-5.25-5.982a94.428 94.428 0 00-5.796-5.566 79.428 79.428 0 00-4.704-3.818c-1.264-.949-2.164-1.567-3.525-1.94-1.36-.374-3.182-.502-4.436-.524-1.254-.021-1.94.064-2.54.33-.6.267-1.115.715-1.511 1.153-.397.437-.675.863-.804 1.354a2.624 2.624 0 00.044 1.472c.15.427.429.725 1.383.863.953.138 2.582.117 3.878.352 1.297.235 2.261.725 3.676 1.739 1.414 1.013 3.278 2.548 5.174 4.393 1.897 1.845 3.825 3.998 5.358 5.832a96.22 96.22 0 013.235 4.105c.567.756.567.756.921 1.013z" fill="#ff2a2a" fill-rule="evenodd" filter="url(#prefix__v)"/><path d="M144.181 113.347c-.054.225-.268.737-.664 1.472a30.186 30.186 0 01-1.597 2.602c-.621.906-1.285 1.759-2.014 2.388-.728.629-1.52 1.034-2.335 1.311-.814.277-1.65.427-3.224.246-1.575-.181-3.89-.693-6.643-2.047-2.754-1.354-5.947-3.55-9.975-7.122-4.03-3.572-8.893-8.52-12.15-12.155-3.258-3.636-4.908-5.96-6.762-8.84a121.66 121.66 0 01-6.043-10.47c-2.132-4.158-4.34-9.042-6.205-13.705-1.865-4.662-3.385-9.091-4.542-13.207-1.157-4.116-1.95-7.912-2.422-11.836-.471-3.924-.621-7.975-.214-11.462.407-3.487 1.371-6.409 2.175-8.478.803-2.068 1.446-3.284 2.046-4.18.6-.896 1.158-1.471 1.94-1.77.783-.298 1.79-.32 3.398-.106 1.607.213 3.814.66 5.603 1.184 1.79.522 3.161 1.12 3.911 1.471.75.353.879.46.836.533-.043.074-.258.117-.59.149-.332.032-.782.053-1.296.043-.514-.011-1.093-.054-1.918.02-.825.075-1.897.267-3 .854-1.105.586-2.24 1.567-3.184 2.719-.943 1.152-1.693 2.474-2.25 3.764-.557 1.29-.921 2.549-1.007 4.266-.085 1.717.108 3.892.343 6.206.236 2.314.515 4.766.943 7.336a74.263 74.263 0 001.822 8.125c.814 2.868 1.864 5.917 3.15 9.297 1.286 3.38 2.807 7.091 4.372 10.418 1.564 3.326 3.171 6.27 5.057 9.457 1.886 3.189 4.05 6.622 6.633 10.13 2.582 3.508 5.582 7.09 8.314 10.13 2.733 3.038 5.197 5.533 7.447 7.495 2.25 1.961 4.286 3.39 5.925 4.296 1.64.906 2.882 1.29 4.318 1.514 1.436.223 3.064.287 4.253.16a7.239 7.239 0 002.539-.737c.6-.287 1.05-.543 1.5-.8.45-.255.9-.511 1.179-.671.278-.16.385-.224.331 0z" fill="#fff" fill-rule="evenodd" filter="url(#prefix__w)"/><path d="M110.453 111.79c-.182.437-1.147.885-2.122 1.408-.975.522-1.96 1.12-2.647 1.6-.686.48-1.071.842-1.435.938-.363.096-.706-.074-1.167-.543-.461-.469-1.04-1.236-1.907-2.186-.868-.949-2.025-2.079-3.054-3.102-1.028-1.024-1.928-1.94-2.518-2.517-.589-.576-.868-.81-.922-1.077-.054-.267.117-.566.46-.843.344-.278.858-.534 1.436-.832.579-.299 1.222-.64 1.833-.939.61-.298 1.189-.554 1.66-.831.471-.277.836-.576 1.179-.779.343-.202.665-.309.868-.244.203.065.29.3.525.8.236.502.622 1.27 1.265 2.186.643.917 1.543 1.984 2.507 2.954.965.97 1.993 1.844 2.807 2.495.815.65 1.415 1.076 1.232 1.513z" fill="#fff" fill-rule="evenodd" filter="url(#prefix__x)"/><path d="M97.991 96.81c.344.364.687.726.826 1.088.138.363.074.725-.322 1.098-.396.372-1.125.756-1.8 1.087-.675.33-1.296.608-2.067.863-.772.256-1.693.491-2.593.364-.9-.128-1.778-.618-2.7-1.674-.922-1.055-1.886-2.675-2.71-4.115-.826-1.44-1.512-2.698-2.165-3.806-.654-1.11-1.275-2.069-1.447-2.763-.172-.693.106-1.12.557-1.525.45-.406 1.071-.79 1.768-1.142.697-.351 1.468-.671 2.079-.927.61-.256 1.06-.448 1.51-.64" fill="#fff" fill-rule="evenodd" filter="url(#prefix__y)"/><path d="M87.438 79.772c.118.916-.418 1.235-1.21 1.683a86.297 86.297 0 01-2.797 1.514c-.954.49-1.81.896-2.453 1.003-.643.107-1.071-.085-1.543-.724-.472-.64-.986-1.727-1.48-2.878-.492-1.152-.964-2.367-1.478-3.455s-1.071-2.047-1.468-2.879c-.396-.832-.632-1.535-.718-2.08-.086-.543-.022-.927.364-1.323.386-.395 1.093-.8 1.93-1.173.835-.373 1.8-.714 2.603-1.045.803-.33 1.446-.65 1.929-.874.482-.224.803-.352 1.092-.031.29.32.547 1.088.954 2.058.407.97.964 2.144 1.425 3.22.46 1.077.825 2.058 1.393 3.306.568 1.247 1.34 2.762 1.457 3.678z" fill="#fff" fill-rule="evenodd" filter="url(#prefix__z)"/><path d="M80.216 62.477c-.096.276-.418.51-1.04.884-.62.373-1.542.885-2.27 1.343-.73.459-1.265.864-1.768 1.195-.504.33-.975.586-1.435.608-.46.022-.91-.191-1.329-.778-.418-.586-.804-1.545-1.222-2.537-.418-.991-.868-2.015-1.21-3.007-.344-.991-.58-1.95-.762-2.73-.182-.778-.31-1.375-.214-1.898.096-.523.417-.97 1.168-1.462.75-.49 1.929-1.023 2.85-1.46.922-.438 1.586-.779 2.122-1.035.536-.256.943-.426 1.232-.223.289.204.46.78.685 1.547.225.768.504 1.728.88 2.804.374 1.077.846 2.272 1.22 3.263.376.992.654 1.78.858 2.335.203.555.332.875.235 1.15z" fill="#fff" fill-rule="evenodd" filter="url(#prefix__A)"/><path d="M75.116 46.514c-.31.245-.932.736-1.628 1.162-.697.427-1.468.79-2.132 1.12-.665.33-1.222.629-1.672.842-.45.213-.793.341-1.04.001-.246-.34-.396-1.15-.61-1.705-.213-.555-.492-.853-.685-1.237-.194-.384-.3-.853-.376-1.77-.075-.917-.118-2.282-.065-3.167.054-.885.204-1.29.75-1.686.548-.395 1.49-.778 2.434-1.13.942-.352 1.885-.672 2.678-1.003.793-.33 1.436-.671 1.81-.596.375.076.483.566.472 1.366-.011.8-.14 1.908-.129 2.943.01 1.034.16 1.994.268 2.75.107.758.171 1.312.203 1.589.033.276.033.276-.278.521z" fill="#fff" fill-rule="evenodd" filter="url(#prefix__B)"/><path d="M74.484 33.378c-.363.032-1.092.096-1.81.394-.719.299-1.426.832-2.015 1.184-.589.352-1.06.522-1.574.608-.514.085-1.072.085-1.383-.17-.311-.255-.375-.767-.311-1.322.064-.554.257-1.152.46-1.706.204-.555.418-1.066.525-1.567.108-.501.108-.991.182-1.376.075-.384.225-.661.665-.97.44-.31 1.168-.652 2.015-.918a14.621 14.621 0 012.443-.533c.633-.075.933-.032 1.136.331.203.364.31 1.046.331 1.813.021.768-.043 1.621-.107 2.335-.065.715-.129 1.29-.161 1.578-.032.287-.032.287-.396.319z" fill="#fff" fill-rule="evenodd" filter="url(#prefix__C)"/><path d="M76.51 22.758c-.268.096-.804.288-1.511.501-.707.213-1.586.448-2.208.704-.621.256-.986.533-1.296.513-.31-.021-.567-.34-.675-.757a1.91 1.91 0 01.16-1.344c.225-.417.632-.737.921-1.088.29-.351.46-.735.61-1.077.15-.34.28-.64.72-.917.44-.278 1.19-.534 2.046-.757.858-.224 1.822-.416 2.422-.48.6-.064.836 0 .996.246.16.246.246.673.139 1.088-.108.415-.408.82-.697 1.13-.289.308-.567.521-.793.863-.225.342-.396.81-.482 1.045-.085.234-.085.234-.353.33z" fill="#fff" fill-rule="evenodd" filter="url(#prefix__D)"/><path d="M66.57 22.628c-.272.123-.814.368-1.414.654-.6.287-1.257.614-1.825 1.03a6.405 6.405 0 00-1.372 1.383c-.33.459-.51.868-.584 1.277-.074.41-.04.818.017 1.137.058.32.14.548.518.58.378.032 1.052-.132 1.464-.18.41-.049.559.017.821-.05.263-.065.64-.262 1.018-.613s.756-.858 1.052-1.373c.295-.515.51-1.039.649-1.48.14-.442.205-.802.181-1.202-.024-.4-.14-.842-.197-1.064-.058-.221-.058-.221-.329-.099z" fill="#fff" fill-rule="evenodd" filter="url(#prefix__E)"/><path d="M63.636 31.707c-.23-.58-.804-.843-1.323-.9-.518-.058-.978.09-1.39.326a2.54 2.54 0 00-1.019 1.04c-.246.475-.378 1.096-.493 1.734-.115.638-.214 1.292-.304 1.848s-.173 1.014-.18 1.473c-.009.458.057.916.37 1.234.313.319.872.499 1.455.498.583 0 1.191-.18 1.65-.564.46-.384.773-.973.954-1.725.18-.752.23-1.668.312-2.576.082-.908.197-1.807-.032-2.388z" fill="#fff" fill-rule="evenodd" filter="url(#prefix__F)"/><path d="M61.918 42.223c-.484.04-1.454.123-2.136.147-.682.025-1.076-.008-1.34.05-.264.057-.395.204-.46.466-.066.263-.066.639-.066 1.187s0 1.267.049 2.028c.05.76.148 1.562.197 2.216.05.654.05 1.161.008 1.685-.041.523-.123 1.063-.172 1.406-.05.344-.066.49.272.588.337.098 1.028.147 1.841.196.814.05 1.75.098 2.433.098.681 0 1.109-.049 1.387-.27.28-.22.41-.612.411-1.094 0-.482-.131-1.055-.328-1.562-.197-.507-.46-.949-.666-1.398a5.88 5.88 0 01-.452-1.464c-.099-.556-.148-1.21-.19-1.726a31.183 31.183 0 00-.123-1.3c-.049-.41-.115-.85-.148-1.072-.033-.222-.033-.222-.517-.181z" fill="#fff" fill-rule="evenodd" filter="url(#prefix__G)"/><path d="M64.088 56.42c-.386.008-1.158.025-1.857.033-.698.008-1.323.008-1.759.065-.436.057-.682.172-.83.475-.149.303-.198.794-.165 1.449.033.654.148 1.472.238 2.224.09.752.157 1.44.222 1.955.066.515.132.858.346 1.136.215.278.576.49.814.818.238.327.353.77.426 1.26.074.49.107 1.03.124 1.447.016.417.016.712.436.915.42.204 1.258.319 2.063.368a14.89 14.89 0 002.202-.025c.625-.057 1.101-.156 1.413-.343.312-.188.46-.466.5-1.079.042-.613-.024-1.561-.122-2.167-.098-.605-.23-.866-.517-1.218-.287-.352-.731-.794-.978-1.243-.247-.45-.297-.908-.395-1.587a71.67 71.67 0 00-.37-2.257c-.123-.679-.222-1.137-.451-1.472-.23-.336-.591-.548-.773-.655-.182-.107-.182-.107-.567-.099z" fill="#fff" fill-rule="evenodd" filter="url(#prefix__H)"/><path d="M68.23 71.435c-.715.008-2.062.025-2.917.017-.855-.009-1.216-.041-1.488.196-.272.238-.453.745-.477 1.269-.025.523.107 1.063.37 1.595.264.531.658 1.055.929 1.668.27.613.418 1.317.542 1.89.123.572.222 1.013.46 1.537.239.523.617 1.128.937 1.709.32.58.584 1.137.814 1.693.23.556.427 1.112.698 1.603.272.49.617.915 1.209 1.086.591.171 1.43.09 2.17.122.74.033 1.38.18 1.832.345.452.163.715.343 1.134.457.42.114.995.164 1.438.155.444-.008.756-.074.854-.343.099-.269-.017-.743-.28-1.283-.262-.54-.673-1.145-1.084-1.807a24.104 24.104 0 01-1.126-2.004 15.205 15.205 0 01-.698-1.7c-.198-.557-.395-1.146-.674-1.718-.28-.573-.64-1.129-.953-1.766-.313-.638-.576-1.358-.822-1.906a6.733 6.733 0 00-.805-1.366 12.766 12.766 0 00-1.01-1.203c-.255-.254-.338-.254-1.053-.246z" fill="#fff" fill-rule="evenodd" filter="url(#prefix__I)"/><path d="M77.755 90.327c-1.003-.303-2.778-.401-4.043-.475-1.266-.073-2.022-.122-2.425-.016-.404.107-.453.369-.288.704.165.336.543.745.937 1.236.395.49.806 1.063 1.167 1.627.362.564.674 1.12 1.126 1.758.452.638 1.044 1.358 1.512 2.094.468.736.813 1.488 1.216 2.167a8.528 8.528 0 001.406 1.807c.543.523 1.167.965 1.578 1.35.41.384.608.711 1.347.956.74.245 2.022.408 3.165.646 1.142.237 2.145.548 2.785.556.64.008.92-.287.928-.654.009-.367-.254-.809-.665-1.382-.41-.572-.97-1.275-1.463-1.905-.493-.63-.92-1.186-1.536-1.93-.617-.744-1.422-1.677-2.129-2.593a43.592 43.592 0 01-1.824-2.584c-.51-.768-.92-1.406-1.241-1.979-.321-.572-.551-1.08-1.553-1.383z" fill="#fff" fill-rule="evenodd" filter="url(#prefix__J)"/><path d="M90.59 107.811c-.459.025-1.38.074-2.546.098-1.167.025-2.58.025-3.394.041-.814.016-1.028.05-1.02.189.009.14.239.385.658.794.42.409 1.027.981 1.685 1.701.657.72 1.364 1.587 2.178 2.355.813.769 1.734 1.44 2.432 1.996.699.556 1.175.997 1.701 1.258.526.262 1.102.343 1.94.36.838.016 1.939-.033 2.76-.115.822-.082 1.365-.196 1.578-.408.214-.212.098-.523-.27-.932-.37-.409-.995-.916-1.636-1.48a32.502 32.502 0 01-1.882-1.791c-.583-.605-1.093-1.194-1.52-1.668-.428-.475-.773-.834-1.126-1.219-.353-.384-.715-.793-.896-.998-.182-.205-.182-.205-.641-.18z" fill="#fff" fill-rule="evenodd" filter="url(#prefix__K)"/><path d="M79.011 121.223c-.205.09-.616.27-1.174.295-.559.024-1.265-.106-2.013-.523-.748-.417-1.537-1.12-2.77-2.42-1.233-1.3-2.909-3.198-4.027-4.4-1.117-1.202-1.676-1.71-1.767-2.037-.09-.328.288-.475.847-.557a9.404 9.404 0 011.857-.057c.56.041.937.14 1.274.394.337.254.633.663 1.15 1.325.518.662 1.258 1.578 1.965 2.445.706.867 1.38 1.685 2.038 2.445a56.23 56.23 0 001.767 1.955c.468.49.764.769.911.907.147.138.147.138-.058.228z" fill="#fff" fill-rule="evenodd" filter="url(#prefix__L)"/><path d="M68 108.082c-.041.424-.699.555-1.298.572a4.734 4.734 0 01-1.635-.245c-.493-.164-.937-.392-1.373-.85-.436-.458-.863-1.145-1.553-2.265s-1.644-2.674-2.523-4.08c-.88-1.408-1.685-2.667-2.129-3.452-.444-.785-.526-1.096-.46-1.35.065-.255.278-.45.657-.54.379-.09.921-.074 1.44.008.517.082 1.01.229 1.38.442.37.213.616.491.92.974.304.482.665 1.17 1.117 2.02.452.85.994 1.864 1.734 3.042a63.792 63.792 0 002.433 3.55c.756 1.03 1.331 1.75 1.29 2.174z" fill="#fff" fill-rule="evenodd" filter="url(#prefix__M)"/><path d="M57.933 91.914c-.18.318-.986.416-1.635.465-.65.05-1.142.05-1.47.025-.33-.024-.494-.073-.897-.604s-1.044-1.546-1.71-2.78c-.665-1.235-1.356-2.69-1.94-3.991-.583-1.3-1.06-2.445-1.323-3.255-.263-.81-.312-1.284-.205-1.58.107-.295.37-.41.88-.466a7.802 7.802 0 011.89.04c.625.1 1.118.296 1.405.566.287.27.37.614.517 1.284.148.671.362 1.669.707 2.732a22.296 22.296 0 001.357 3.23 24.532 24.532 0 001.643 2.732c.518.744.962 1.284.781 1.602z" fill="#fff" fill-rule="evenodd" filter="url(#prefix__N)"/><path d="M50.627 75.86c-.337.065-1.01.196-1.643.261-.633.066-1.224.066-1.635-.04-.411-.106-.641-.318-.946-.825-.304-.507-.682-1.309-.97-2.16-.288-.85-.485-1.75-.682-2.673-.197-.924-.395-1.873-.51-2.642-.115-.769-.148-1.358-.041-1.767.107-.41.353-.639.74-.762.387-.122.913-.139 1.357-.106a3.89 3.89 0 011.126.238c.32.123.6.287.763.622.164.336.213.843.271 1.333.058.491.123.965.255 1.587.131.622.329 1.39.526 2.061.197.67.394 1.243.575 1.8.181.555.345 1.095.535 1.594.189.499.402.957.509 1.185.106.228.106.228-.23.293z" fill="#fff" fill-rule="evenodd" filter="url(#prefix__O)"/><path d="M46.477 61.212c-.247.09-.74.27-1.29.377-.55.106-1.158.139-1.545.147-.386.008-.55-.008-.715-.392-.165-.383-.33-1.136-.469-2.044a45.286 45.286 0 01-.337-2.944c-.082-.973-.132-1.856-.107-2.6.024-.745.123-1.35.222-1.808.098-.458.197-.77.41-.99.215-.222.544-.353.939-.418a3.256 3.256 0 011.257.033c.403.099.748.295.945.68.196.385.246.957.22 1.57-.024.613-.123 1.268-.147 2.061-.025.793.025 1.726.107 2.478.082.753.197 1.325.296 1.767.099.441.18.752.255 1.063.074.31.14.621.172.776.033.155.033.155-.213.244z" fill="#fff" fill-rule="evenodd" filter="url(#prefix__P)"/><path d="M45.54 48.307c-.296.09-.887.27-1.47.205-.583-.065-1.159-.375-1.48-.923-.321-.548-.387-1.333-.28-2.298.106-.965.386-2.11.649-2.994.263-.883.51-1.504.74-2.077.23-.572.443-1.096.698-1.578a6.79 6.79 0 01.888-1.31c.337-.384.715-.711 1.02-.866.304-.156.534-.14.591.107.057.245-.058.72-.206 1.096-.148.375-.329.653-.469 1.038-.14.385-.238.876-.328 1.53-.09.654-.173 1.472-.173 2.372 0 .9.083 1.88.14 2.682.058.802.09 1.423.082 1.881-.008.458-.058.752-.082.899-.025.147-.025.147-.32.236z" fill="#fff" fill-rule="evenodd" filter="url(#prefix__Q)"/><path d="M39.738 44.627c-.23.188-.69.565-1.069 1.056-.378.49-.674 1.096-.912 1.791-.238.696-.42 1.48-.534 2.151-.115.671-.165 1.227-.156 1.685.008.458.074.818.256 1.063a.802.802 0 00.772.326c.295-.05.59-.278.788-.49.197-.213.295-.409.485-.646.189-.238.468-.516.649-.777.18-.261.263-.507.312-.858.05-.352.066-.81.107-1.398.041-.59.107-1.309.148-1.865.041-.556.058-.949-.049-1.292-.106-.343-.336-.638-.452-.786-.115-.148-.115-.148-.345.04z" fill="#fff" fill-rule="evenodd" filter="url(#prefix__R)"/><path d="M39.245 54.441c-.328.09-.986.27-1.48.818-.493.549-.822 1.465-.978 2.528-.156 1.063-.14 2.274-.065 3.37.074 1.096.205 2.077.312 2.699.107.621.19.883.428.997.239.113.633.08.912-.222s.443-.874.607-1.235c.165-.36.33-.507.552-.58.222-.074.502-.074.74-.246.237-.171.434-.515.434-1.127 0-.613-.197-1.496-.377-2.282-.181-.785-.345-1.472-.428-2.044-.082-.573-.082-1.03-.123-1.472a11.23 11.23 0 00-.165-1.08c-.04-.214-.04-.214-.369-.124z" fill="#fff" fill-rule="evenodd" filter="url(#prefix__S)"/><path d="M40.478 67.698c-.395.098-.872.49-1.209 1.104-.337.614-.534 1.448-.633 2.512a22.372 22.372 0 00-.016 3.484c.082 1.128.247 2.093.477 2.707.231.613.527.875.93 1.087.403.212.912.376 1.249.548.337.172.5.352.813.392.312.04.772-.058.977-.278.205-.22.156-.563.148-.899-.009-.335.024-.662.115-.843.091-.18.24-.213.354-.368.114-.155.196-.433.024-.94-.172-.506-.6-1.242-.945-2.044a13.926 13.926 0 01-.789-2.494c-.18-.826-.28-1.611-.345-2.217-.066-.605-.099-1.03-.27-1.341-.172-.311-.485-.507-.88-.41z" fill="#fff" fill-rule="evenodd" filter="url(#prefix__T)"/><path d="M45.302 81.568c-.337.081-1.01.245-1.447.613-.436.369-.633.941-.724 1.612-.09.671-.073 1.44.1 2.266.172.826.501 1.71.953 2.723a54.674 54.674 0 001.578 3.198c.55 1.039 1.077 1.971 1.537 2.617.46.646.855 1.006 1.446 1.021.592.016 1.38-.311 1.873-.777.493-.466.69-1.07.444-1.847-.246-.777-.936-1.725-1.56-2.789-.625-1.063-1.184-2.24-1.743-3.303-.559-1.064-1.117-2.012-1.471-2.896-.354-.883-.502-1.7-.576-2.11-.074-.41-.074-.41-.41-.328z" fill="#fff" fill-rule="evenodd" filter="url(#prefix__U)"/><path d="M52.714 97.279c-.354-.026-.781.432-1.225.784-.443.351-.903.597-1.1.876-.198.279-.132.59.222 1.195.353.605.994 1.504 1.791 2.641.798 1.137 1.75 2.51 2.564 3.615.814 1.104 1.488 1.938 1.965 2.47.477.53.756.76 1.232.85.477.088 1.15.04 1.594-.1.443-.139.657-.368.706-.702.05-.335-.065-.776-.402-1.34-.336-.565-.895-1.252-1.528-2.086-.633-.834-1.34-1.815-1.956-2.65-.616-.834-1.142-1.52-1.619-2.249a33.663 33.663 0 01-1.257-2.134c-.354-.638-.633-1.145-.987-1.17z" fill="#fff" fill-rule="evenodd" filter="url(#prefix__V)"/><path d="M62.674 111.123c-.171 0-.517 0-.69.18-.173.182-.173.541-.296.786-.123.244-.37.375-.591.425-.221.049-.419.016-.469.23-.05.213.05.67.296 1.088.247.417.642.793 1.332 1.48.69.687 1.676 1.685 2.778 2.699a79.63 79.63 0 003.591 3.083c1.274 1.038 2.605 2.085 3.928 2.837 1.323.752 2.638 1.21 3.649 1.513 1.01.302 1.717.45 2.07.474.353.025.353-.073.32-.203a1.07 1.07 0 00-.262-.475c-.164-.18-.427-.376-.772-.605a39.51 39.51 0 00-1.397-.867c-.625-.377-1.446-.867-2.252-1.423a33.16 33.16 0 01-2.416-1.865 47.223 47.223 0 01-2.498-2.232 33.425 33.425 0 01-2.507-2.699c-.896-1.071-1.898-2.38-2.523-3.157-.624-.777-.87-1.022-.995-1.145-.124-.124-.124-.124-.296-.124z" fill="#fff" fill-rule="evenodd" filter="url(#prefix__W)"/></svg>